<svg viewBox="0 0 600 320" width="100%" xmlns="http://www.w3.org/2000/svg">
  <rect width="600" height="320" rx="8" fill="#0f172a" stroke="#1e293b" stroke-width="2"/>
  
  <rect x="0" y="0" width="600" height="40" rx="8" fill="#1e293b"/>
  <text x="20" y="25" font-family="sans-serif" font-size="12" font-weight="bold" fill="#94a3b8">EIGENSCHAFTEN (ZONE 4)</text>
  
  <rect x="480" y="10" width="100" height="20" rx="10" fill="#064e3b"/>
  <text x="500" y="23" font-family="sans-serif" font-size="10" font-weight="bold" fill="#34d399">✓ AUTO-SAVE</text>

  <text x="20" y="70" font-family="sans-serif" font-size="11" font-weight="bold" fill="#94a3b8">NAME</text>
  <rect x="20" y="80" width="560" height="36" rx="6" fill="#1e293b" stroke="#334155"/>
  <text x="30" y="103" font-family="sans-serif" font-size="13" fill="#f8fafc">VIAC Global 100</text>

  <text x="20" y="140" font-family="sans-serif" font-size="11" font-weight="bold" fill="#94a3b8">ANLAGEKLASSE</text>
  <rect x="20" y="150" width="380" height="36" rx="6" fill="#1e293b" stroke="#334155"/>
  <text x="30" y="173" font-family="sans-serif" font-size="13" fill="#cbd5e1">3a Fonds (pension_3a_fund)</text>

  <text x="420" y="140" font-family="sans-serif" font-size="11" font-weight="bold" fill="#94a3b8">WÄHRUNG</text>
  <rect x="420" y="150" width="160" height="36" rx="6" fill="#1e293b" stroke="#334155"/>
  <text x="430" y="173" font-family="sans-serif" font-size="13" fill="#cbd5e1">CHF</text>

  <rect x="20" y="210" width="560" height="46" rx="6" fill="#1e293b" stroke="#334155"/>
  <rect x="35" y="225" width="16" height="16" rx="4" fill="#0f172a" stroke="#475569"/>
  <text x="65" y="238" font-family="sans-serif" font-size="13" fill="#f8fafc">Liquides Mittel</text>
  
  <rect x="200" y="222" width="360" height="22" rx="4" fill="#7f1d1d" opacity="0.3"/>
  <text x="210" y="237" font-family="sans-serif" font-size="11" fill="#fca5a5">Inaktiv: Säule 3a ist gesetzlich gebunden.</text>
</svg>
